<?xml version="1.0" encoding="UTF-8"?>
<svg version="1.1" xmlns="http://www.w3.org/2000/svg" width="500" height="500">
<path d="M0 0 C165 0 330 0 500 0 C500 165 500 330 500 500 C335 500 170 500 0 500 C0 335 0 170 0 0 Z " fill="#01BB4C" transform="translate(0,0)"/>
<path d="M0 0 C165 0 330 0 500 0 C500 54.78 500 109.56 500 166 C335 166 170 166 0 166 C0 111.22 0 56.44 0 0 Z " fill="#00260F" transform="translate(0,334)"/>
<path d="M0 0 C165 0 330 0 500 0 C500 54.78 500 109.56 500 166 C335 166 170 166 0 166 C0 111.22 0 56.44 0 0 Z " fill="#00260F" transform="translate(0,0)"/>
<path d="M0 0 C55.11 0 110.22 0 167 0 C167 54.78 167 109.56 167 166 C111.89 166 56.78 166 0 166 C0 111.22 0 56.44 0 0 Z " fill="#000000" transform="translate(333,0)"/>
<path d="M0 0 C54.78 0 109.56 0 166 0 C166 54.78 166 109.56 166 166 C111.22 166 56.44 166 0 166 C0 111.22 0 56.44 0 0 Z " fill="#00973D" transform="translate(333,167)"/>
<path d="M0 0 C54.78 0 109.56 0 166 0 C166 54.45 166 108.9 166 165 C111.22 165 56.44 165 0 165 C0 110.55 0 56.1 0 0 Z " fill="#000000" transform="translate(333,335)"/>
<path d="M0 0 C54.45 0 108.9 0 165 0 C165 54.78 165 109.56 165 166 C110.55 166 56.1 166 0 166 C0 111.22 0 56.44 0 0 Z " fill="#00973D" transform="translate(0,167)"/>
<path d="M0 0 C54.45 0 108.9 0 165 0 C165 54.78 165 109.56 165 166 C110.55 166 56.1 166 0 166 C0 111.22 0 56.44 0 0 Z " fill="#000000" transform="translate(0,0)"/>
<path d="M0 0 C54.45 0 108.9 0 165 0 C165 54.45 165 108.9 165 165 C110.55 165 56.1 165 0 165 C0 110.55 0 56.1 0 0 Z " fill="#000000" transform="translate(0,335)"/>
</svg>
